#!OML:ASF I:\Actors\actors\Patient Classification 2\Patient 1\Session 1\actor1.ASF
:FULLY-SPECIFIED
:DEGREES
665
root -0.776829 18.9217 4.52625 22.0577 -6.9905 4.07666
lowerback 25.0176 -5.64362 13.1792
upperback 2.84362 -3.03148 5.75491
thorax -11.1362 -1.82539 0.107467
lowerneck -13.7619 0.897351 2.6588
upperneck -5.02114 0.731471 -9.93881
head 0.848227 0.101764 -3.71502
rclavicle 1.90833e-014 1.90833e-014
rhumerus 45.9793 45.7664 -73.3488
rradius 147.343
rwrist -41.1151
rhand -11.0119 -36.4749
rfingers 7.12502
rthumb 15.009 -65.911
lclavicle 1.90833e-014 1.90833e-014
lhumerus 46.3902 -52.112 68.7869
lradius 145.782
lwrist 34.5968
lhand -24.9649 -60.8656
lfingers 7.12502
lthumb 1.54547 -30.8915
rfemur -27.3133 4.95307 6.62301
rtibia 10.9305
rfoot -18.4543 -16.2332
rtoes -6.92436
lfemur -32.3714 1.34112 -17.5204
ltibia 21.5211
lfoot -13.2234 8.73521
ltoes -54.5539
666
root -0.768616 18.9218 4.52847 21.8725 -6.53359 3.89063
lowerback 25.1316 -5.70086 13.0839
upperback 2.8407 -3.13392 5.52458
thorax -11.2186 -1.87526 -0.0581421
lowerneck -13.4173 0.843445 2.70439
upperneck -4.99646 0.658565 -9.84583
head 0.790737 0.0763866 -3.69136
rclavicle 2.22639e-014 -8.11041e-014
rhumerus 45.3645 45.9196 -73.8093
rradius 147.315
rwrist -41.3081
rhand -10.737 -35.8197
rfingers 7.12502
rthumb 15.2738 -65.2357
lclavicle 2.22639e-014 -8.11041e-014
lhumerus 45.1708 -51.94 70.0244
lradius 145.985
lwrist 36.6007
lhand -24.3809 -60.2007
lfingers 7.12502
lthumb 2.10946 -30.2314
rfemur -26.999 4.53817 7.04754
rtibia 11.0067
rfoot -18.4089 -16.2014
rtoes -7.03028
lfemur -32.3511 1.08635 -17.2219
ltibia 21.8172
lfoot -13.2307 8.52403
ltoes -54.3905
667
root -0.761358 18.9183 4.53064 21.6811 -6.08016 3.65428
lowerback 25.1648 -5.65988 12.7856
upperback 2.92116 -3.1892 5.32092
thorax -11.1436 -1.88796 -0.112826
lowerneck -13.273 0.852948 2.81924
upperneck -4.86544 0.670249 -9.7823
head 0.810225 0.0844804 -3.69004
rclavicle -5.40694e-014 4.92986e-014
rhumerus 45.1679 46.1952 -73.8102
rradius 147.202
rwrist -40.6194
rhand -10.5282 -34.7046
rfingers 7.12502
rthumb 15.4749 -64.1052
lclavicle -5.40694e-014 4.92986e-014
lhumerus 44.4056 -51.5935 70.7841
lradius 146.053
lwrist 37.6669
lhand -24.1585 -59.6664
lfingers 7.12502
lthumb 2.32429 -29.6993
rfemur -26.668 4.19534 7.49907
rtibia 11.0542
rfoot -18.4298 -16.1448
rtoes -6.67056
lfemur -32.3442 0.863902 -16.8722
ltibia 22.1421
lfoot -13.2565 8.31496
ltoes -54.3392
668
root -0.752531 18.9133 4.53371 21.4756 -5.58749 3.35187
lowerback 25.1819 -5.66896 12.413
upperback 2.99926 -3.32162 5.19994
thorax -11.062 -1.93079 -0.00462347
lowerneck -13.0996 1.00254 2.75057
upperneck -4.73343 0.896522 -9.91655
head 0.840751 0.200061 -3.71209
rclavicle 9.85972e-014 -4.92986e-014
rhumerus 45.371 46.9111 -73.3817
rradius 146.941
rwrist -38.8962
rhand -10.4693 -33.2911
rfingers 7.12502
rthumb 15.5317 -62.6874
lclavicle 9.85972e-014 -4.92986e-014
lhumerus 44.0264 -51.1816 70.9992
lradius 145.955
lwrist 37.3518
lhand -24.6257 -59.273
lfingers 7.12502
lthumb 1.87308 -29.3014
rfemur -26.2707 3.77966 8.05197
rtibia 11.0287
rfoot -18.4045 -16.0703
rtoes -6.36149
lfemur -32.3377 0.656305 -16.4708
ltibia 22.4921
lfoot -13.2576 8.19331
ltoes -54.5794
669
root -0.744463 18.9088 4.53636 21.2367 -5.02949 2.9803
lowerback 25.1939 -5.59867 12.2571
upperback 2.9979 -3.3 4.95293
thorax -11.0742 -1.92076 -0.208509
lowerneck -12.7608 0.996841 2.65931
upperneck -4.59273 0.918326 -9.9511
head 0.829174 0.219556 -3.70351
rclavicle 1.27222e-014 -1.74931e-014
rhumerus 45.5952 47.1307 -72.9867
rradius 146.197
rwrist -36.511
rhand -10.3794 -32.8465
rfingers 7.12502
rthumb 15.6183 -62.236
lclavicle 1.27222e-014 -1.74931e-014
lhumerus 43.7394 -51.6038 71.0264
lradius 145.859
lwrist 36.1538
lhand -24.9197 -59.4267
lfingers 7.12502
lthumb 1.58914 -29.4529
rfemur -25.7975 3.35759 8.69126
rtibia 10.9535
rfoot -18.3648 -16.0144
rtoes -6.22609
lfemur -32.3108 0.392252 -15.9605
ltibia 22.8536
lfoot -13.2571 8.06217
ltoes -54.6802
670
root -0.737963 18.9059 4.54028 20.9287 -4.54917 2.61156
lowerback 25.2998 -5.41827 11.9847
upperback 2.9899 -3.15671 4.67614
thorax -11.127 -1.85259 -0.419642
lowerneck -12.8997 0.916605 2.33218
upperneck -4.15052 0.894389 -9.72337
head 0.990246 0.204002 -3.56489
rclavicle 1.35174e-014 -9.54166e-015
rhumerus 46.2536 46.4588 -72.67
rradius 144.661
rwrist -34.8928
rhand -9.67949 -34.7467
rfingers 7.12502
rthumb 16.2923 -64.0823
lclavicle 1.35174e-014 -9.54166e-015
lhumerus 43.6084 -52.2009 71.01
lradius 145.713
lwrist 33.7512
lhand -25.3538 -59.6949
lfingers 7.12502
lthumb 1.16985 -29.7184
rfemur -25.2602 3.04827 9.28967
rtibia 10.8633
rfoot -18.3374 -15.9634
rtoes -6.02575
lfemur -32.1869 0.0662826 -15.4155
ltibia 23.201
lfoot -13.3657 7.91889
ltoes -54.3447
671
root -0.729604 18.9035 4.54528 20.5773 -4.19562 2.29349
lowerback 25.3834 -5.1672 11.509
upperback 3.08076 -3.00532 4.30208
thorax -11.0467 -1.76852 -0.640626
lowerneck -12.7888 0.959971 2.26623
upperneck -4.09259 0.970915 -9.71371
head 0.99409 0.247045 -3.54421
rclavicle 1.74931e-014 3.18055e-014
rhumerus 45.9126 47.3956 -71.8148
rradius 144.31
rwrist -31.6518
rhand -17.0954 -30.2441
rfingers 7.12502
rthumb 9.14334 -60.0259
lclavicle 1.74931e-014 3.18055e-014
lhumerus 43.9261 -52.296 70.6889
lradius 145.422
lwrist 30.3054
lhand -25.9908 -59.684
lfingers 7.12502
lthumb 0.554634 -29.705
rfemur -24.6879 2.79104 9.79891
rtibia 10.7231
rfoot -18.2061 -15.913
rtoes -5.99862
lfemur -31.99 -0.169291 -14.9983
ltibia 23.533
lfoot -13.4318 7.89634
ltoes -54.3133
672
root -0.720959 18.9013 4.54915 20.2247 -3.89822 1.95834
lowerback 25.5897 -4.73119 10.5056
upperback 3.1441 -2.70988 4.19744
thorax -11.0133 -1.59214 -0.304024
lowerneck -12.3433 1.03997 1.98779
upperneck -4.42075 1.09165 -9.94207
head 0.816202 0.328621 -3.55924
rclavicle -3.26007e-014 -1.59028e-015
rhumerus 46.0751 48.5394 -70.2296
rradius 143.875
rwrist -27.2862
rhand -18.7789 -27.8845
rfingers 7.12502
rthumb 7.51861 -57.7308
lclavicle -3.26007e-014 -1.59028e-015
lhumerus 43.9791 -53.6228 70.6095
lradius 145.244
lwrist 24.9355
lhand -25.4462 -60.1971
lfingers 7.12502
lthumb 1.0806 -30.2201
rfemur -24.1031 2.58074 10.2965
rtibia 10.5082
rfoot -18.0024 -15.8914
rtoes -6.14711
lfemur -31.7911 -0.289233 -14.6262
ltibia 23.8587
lfoot -13.4521 7.96896
ltoes -54.5913
673
root -0.715704 18.8989 4.55192 19.8598 -3.68029 1.61888
lowerback 25.402 -3.96564 9.26429
upperback 3.23636 -2.11749 4.09608
thorax -10.7167 -1.26493 0.0441562
lowerneck -11.2552 0.89899 1.81484
upperneck -5.01643 0.869049 -10.1541
head 0.418697 0.26387 -3.60126
rclavicle -2.06736e-014 -7.39479e-014
rhumerus 46.6889 47.8753 -68.9205
rradius 142.483
rwrist -23.1514
rhand -21.0098 -25.702
rfingers 7.12502
rthumb 5.36492 -55.614
lclavicle -2.06736e-014 -7.39479e-014
lhumerus 44.2665 -53.9904 70.9311
lradius 144.833
lwrist 20.4349
lhand -24.4152 -60.7773
lfingers 7.12502
lthumb 2.07632 -30.8076
rfemur -23.5077 2.54581 10.7356
rtibia 10.2436
rfoot -17.8786 -15.9107
rtoes -5.96843
lfemur -31.5673 -0.373176 -14.2526
ltibia 24.1839
lfoot -13.565 8.08252
ltoes -54.7199
674
root -0.712102 18.8977 4.55245 19.4461 -3.50421 1.33356
lowerback 25.6688 -3.43641 7.94196
upperback 3.30266 -1.78994 3.9481
thorax -10.7246 -1.06339 0.51308
lowerneck -11.089 1.09582 1.15447
upperneck -5.16139 1.20144 -10.09
head 0.355734 0.453333 -3.43695
rclavicle 5.56597e-015 -1.35174e-014
rhumerus 47.1779 48.4691 -67.4878
rradius 141.354
rwrist -17.769
rhand -23.3058 -22.8621
rfingers 7.12502
rthumb 3.14781 -52.8187
lclavicle 5.56597e-015 -1.35174e-014
lhumerus 44.5407 -53.4403 70.9831
lradius 144.255
lwrist 15.0049
lhand -23.9287 -61.076
lfingers 7.12502
lthumb 2.5462 -31.1114
rfemur -22.865 2.55488 11.1061
rtibia 9.96601
rfoot -17.7795 -15.8847
rtoes -5.60324
lfemur -31.2914 -0.318065 -14.0025
ltibia 24.4977
lfoot -13.6103 8.18364
ltoes -54.9835
675
root -0.709442 18.8996 4.55129 19.0323 -3.34742 1.09811
lowerback 26.2102 -3.02145 6.59621
upperback 3.32453 -1.59834 3.73657
thorax -10.9454 -0.927176 0.990248
lowerneck -11.3484 1.50452 0.212007
upperneck -5.1726 1.87233 -9.86586
head 0.418704 0.804263 -3.15271
rclavicle 1.43125e-014 2.70347e-014
rhumerus 47.9643 49.4382 -65.9607
rradius 140.079
rwrist -11.3148
rhand -26.2302 -21.5624
rfingers 7.12502
rthumb 0.323392 -51.5419
lclavicle 1.43125e-014 2.70347e-014
lhumerus 44.6126 -52.6743 71.0116
lradius 143.666
lwrist 9.10745
lhand -23.3084 -61.0092
lfingers 7.12502
lthumb 3.14527 -31.0527
rfemur -22.23 2.55566 11.4121
rtibia 9.68711
rfoot -17.6717 -15.8418
rtoes -5.14627
lfemur -31.0183 -0.00426065 -13.9246
ltibia 24.7812
lfoot -13.5053 8.21767
ltoes -55.4419
676
root -0.708965 18.9018 4.55092 18.662 -3.28037 0.928956
lowerback 26.7109 -2.4352 5.14668
upperback 3.32028 -1.24379 3.4594
thorax -11.1774 -0.711311 1.39533
lowerneck -11.1514 1.86409 -0.435026
upperneck -5.52236 2.40062 -9.85224
head 0.288221 1.10113 -3.00583
rclavicle 5.64548e-014 -4.77083e-014
rhumerus 48.751 50.3713 -64.1382
rradius 138.822
rwrist -3.675
rhand -29.4145 -22.902
rfingers 7.12502
rthumb -2.75199 -52.864
lclavicle 5.64548e-014 -4.77083e-014
lhumerus 44.8376 -52.1103 70.9899
lradius 143.178
lwrist 3.97646
lhand -22.4136 -60.7029
lfingers 7.12502
lthumb 4.00937 -30.7609
rfemur -21.6577 2.60495 11.6154
rtibia 9.38727
rfoot -17.5105 -15.8258
rtoes -4.84036
lfemur -30.7707 0.475215 -13.9921
ltibia 25.0283
lfoot -13.3648 8.26258
ltoes -55.8799
